<svg width="60" height="60" xmlns="http://www.w3.org/2000/svg">

 <g>
  <title>background</title>
  <rect fill="none" id="canvas_background" height="62" width="62" y="-1" x="-1"/>
 </g>
 <g>
  <title>Layer 1</title>
  <path fill="#c2383e" id="svg_2" d="m55.033699,11.39189l0,-7c0,-2.209961 -1.789978,-4 -4,-4l-14,0l0,11.000001l18,0z" class="st131"/>
  <path fill="#ff5d4a" id="svg_3" d="m8.033701,60.391888l0,-52c0,-4.419999 3.58,-7.999999 8,-7.999999l31.999998,0l3,0c-2.209999,0 -4,1.790001 -4,4l0,27.999995l0,28.000004l-19,-14.000004l-19.999998,14.000004z" class="st87"/>
  <polygon fill="#f7484e" id="svg_4" points="8.033700942993164,60.3918890953064 8.033700942993164,29.391889095306396 47.03369903564453,29.391889095306396 47.03369903564453,60.3918890953064 28.03369903564453,46.39188528060913 " class="st129"/>
  <polygon fill="#ffffff" id="svg_5" points="27.359703063964844,11.99076223373413 30.852401733398438,22.398587703704834 41.685707092285156,22.39933156967163 33.01110076904297,29.04218816757202 36.21385192871094,39.24070882797241 27.359703063964844,33.14808416366577 18.505556106567383,39.24070501327515 21.708303451538086,29.04218816757202 13.033700942993164,22.39933156967163 23.867002487182617,22.398587703704834 " class="st8"/>
 </g>
</svg>