<svg xmlns="http://www.w3.org/2000/svg" width="16" height="12" viewBox="0 0 16 12">
    <path fill="#999" fill-rule="evenodd" d="M6 6.667A.666.666 0 1 0 6 8h5.333a.666.666 0 1 0 0-1.333H6zM14.667 10a.666.666 0 0 1-.667.667H3.877c.075-.21.123-.432.123-.667V1.333h6.667v3.334c0 .368.298.666.666.666h3.334V10zM12 2.276L13.724 4H12V2.276zm3.805 1.92l-4-4A.665.665 0 0 0 11.333 0h-8a.666.666 0 0 0-.666.667V10a.666.666 0 1 1-1.334 0V3.333a.666.666 0 1 0-1.333 0V10a2 2 0 0 0 2 2h12a2 2 0 0 0 2-2V4.667a.665.665 0 0 0-.195-.472zM6 5.332h2.667a.666.666 0 1 0 0-1.333H6a.666.666 0 1 0 0 1.333z"/>
</svg>
