<svg xmlns="http://www.w3.org/2000/svg" width="16" height="16" viewBox="0 0 16 16">
    <path fill="#999" fill-rule="evenodd" d="M2.667 9.333h10.666v-8H2.667v8zM15.333 0H.667a.666.666 0 1 0 0 1.333h.666V10c0 .369.298.667.667.667h3.333l-3.2 4.266.01.007a.649.649 0 0 0-.143.393c0 .369.298.667.667.667a.656.656 0 0 0 .524-.273l.009.006L7 10.667h.333v4.666a.666.666 0 1 0 1.334 0v-4.666H9l3.8 5.066.01-.006a.655.655 0 0 0 .523.273.666.666 0 0 0 .667-.667.649.649 0 0 0-.143-.393l.01-.007-3.2-4.266H14a.666.666 0 0 0 .667-.667V1.333h.666a.666.666 0 1 0 0-1.333zm-10 6.667h4a.666.666 0 1 0 0-1.334h-4a.666.666 0 1 0 0 1.334zm0-2.667h5.334a.666.666 0 1 0 0-1.333H5.333a.666.666 0 1 0 0 1.333z"/>
</svg>
