<svg xmlns="http://www.w3.org/2000/svg" width="28" height="36" viewBox="0 0 28 36">
    <g fill="none" fill-rule="evenodd">
        <path fill="#FFF" d="M3.805 21.366h20.78V4.39H3.805z"/>
        <path fill="#000333" d="M27.903 32.25c0 1.909-6.247 3.457-13.952 3.457S0 34.16 0 32.25c0-1.91 6.246-3.458 13.951-3.458s13.952 1.549 13.952 3.458" opacity=".1"/>
        <path fill="#F8BB83" d="M5.198 30.146H22.9v-2.048H5.198z"/>
        <path fill="#6E4123" d="M5.783 29.561h16.531v-.878H5.784v.878zm17.117 1.17H5.198a.585.585 0 0 1-.585-.585v-2.048c0-.324.262-.586.585-.586H22.9c.323 0 .585.262.585.586v2.048a.585.585 0 0 1-.585.586z"/>
        <path fill="#F8BB83" d="M6.673 25.17H4.215l-1.23 8.196h2.459z"/>
        <path fill="#6E4123" d="M4.005 32.488h.682l.967-6.44H4.97l-.966 6.44zm1.439 1.756H2.986a.879.879 0 0 1-.869-1.008l1.23-8.196a.878.878 0 0 1 .868-.747h2.458a.879.879 0 0 1 .868 1.008l-1.229 8.195a.878.878 0 0 1-.868.748z"/>
        <path fill="#F8BB83" d="M21.916 25.17h2.459l1.23 8.196h-2.46z"/>
        <path fill="#6E4123" d="M23.902 32.488h.683l-.967-6.44h-.682l.966 6.44zm1.708 1.756a.02.02 0 0 1-.006 0h-2.459a.878.878 0 0 1-.868-.748l-1.23-8.195a.879.879 0 0 1 .87-1.008h2.458c.435 0 .803.318.868.747l1.214 8.095a.878.878 0 0 1-.847 1.109z"/>
        <path fill="#F8BB83" d="M6.732 21.366H1.756v3.805h24.585v-3.805H21.66"/>
        <path fill="#6E4123" d="M26.341 26.049H1.756a.878.878 0 0 1-.878-.878v-3.805c0-.485.393-.878.878-.878h1.756a.878.878 0 1 1 0 1.756h-.878v2.049h22.83v-2.05h-.586a.878.878 0 1 1 0-1.755h1.463c.485 0 .879.393.879.878v3.805a.878.878 0 0 1-.879.878"/>
        <path fill="#6E4123" d="M25.463 21.366h-1.756V4.976h-7.024V3.22h7.902c.485 0 .878.393.878.878v17.268zM4.683 21.366H2.927V4.098c0-.485.393-.878.878-.878H12v1.756H4.683v16.39z"/>
        <path fill="#F8BB83" d="M16.39 4.098V.878H12v3.22"/>
        <path fill="#6E4123" d="M16.39 4.976a.878.878 0 0 1-.878-.878V1.756h-2.634v2.342a.878.878 0 1 1-1.756 0V.878c0-.485.393-.878.878-.878h4.39c.485 0 .878.393.878.878v3.22a.878.878 0 0 1-.878.878"/>
        <path fill="#6E4123" d="M16.683 4.976H12a.586.586 0 0 1 0-1.171h4.683a.585.585 0 1 1 0 1.17M26.341 22.244H1.756a.586.586 0 0 1 0-1.17h24.585a.585.585 0 1 1 0 1.17"/>
        <path fill="#B2EDA6" d="M19.923 10.202c0 .198-.069.365-.207.503l-5.35 5.351-1.006 1.005a.683.683 0 0 1-.502.207.683.683 0 0 1-.503-.207l-1.005-1.005-2.676-2.675a.684.684 0 0 1-.207-.503c0-.197.069-.364.207-.503L9.68 11.37a.685.685 0 0 1 .503-.207c.197 0 .364.07.503.207l2.173 2.18 4.848-4.855a.685.685 0 0 1 .502-.207c.198 0 .365.069.503.207L19.716 9.7a.685.685 0 0 1 .207.502"/>
        <path fill="#3C663E" d="M9.206 12.878l3.651 3.65 6.334-6.333-.983-.968-5.351 5.36-2.675-2.684-.976.975zM12.858 18c-.392 0-.745-.146-1.02-.421l-3.681-3.681a1.413 1.413 0 0 1-.421-1.02c0-.391.145-.744.42-1.02l1.006-1.005a1.412 1.412 0 0 1 1.02-.421c.39 0 .743.145 1.019.42l1.657 1.662 4.33-4.336c.277-.276.63-.422 1.02-.422.392 0 .745.146 1.02.421l1.005 1.006c.276.275.422.628.422 1.02s-.146.745-.422 1.02l-6.356 6.356c-.275.275-.628.42-1.02.42z"/>
    </g>
</svg>
