<svg xmlns="http://www.w3.org/2000/svg" width="33" height="36" viewBox="0 0 33 36">
    <g fill="none" fill-rule="evenodd">
        <path fill="#F7E89A" d="M7.38 17.856l2.037-2.036-4.443-4.443-2.036 2.036z"/>
        <path fill="#8D451F" d="M4.16 13.413l3.22 3.221.815-.815-3.22-3.22-.815.814zm3.22 5.307a.861.861 0 0 1-.61-.253l-4.443-4.443a.863.863 0 0 1 0-1.222l2.036-2.036a.864.864 0 0 1 1.222 0l4.443 4.442a.864.864 0 0 1 0 1.222l-2.036 2.037a.862.862 0 0 1-.611.253z"/>
        <path fill="#F7E89A" d="M6.048 12.265l.925-.926-2.036-2.036-4.073 4.073L2.9 15.412l1.131-1.13"/>
        <path fill="#8D451F" d="M2.9 16.276a.864.864 0 0 1-.61-.253L.253 13.987a.864.864 0 0 1 0-1.222l4.073-4.073a.89.89 0 0 1 1.222 0l2.036 2.036a.864.864 0 0 1 0 1.222l-.925.926-1.222-1.222.314-.315-.814-.814-2.851 2.85.815.815.52-.52 1.221 1.222-1.13 1.131a.864.864 0 0 1-.611.253"/>
        <path fill="#8D451F" d="M3.76 14.717a.576.576 0 0 1-.407-.983l2.101-2.102a.576.576 0 1 1 .815.815l-2.101 2.1a.573.573 0 0 1-.408.17"/>
        <path fill="#333" d="M29.865 33.066c0 1.62-6.242 2.934-13.824 2.934S2.41 34.686 2.41 33.066s6.146-2.934 13.728-2.934 13.728 1.314 13.728 2.934" opacity=".1"/>
        <path fill="#F7E89A" d="M14.313 11.808h3.456v-4.28h-3.456z"/>
        <path fill="#8D451F" d="M15.177 10.944h1.728V8.393h-1.728v2.551zm2.592 1.728h-3.456a.864.864 0 0 1-.864-.864v-4.28c0-.477.387-.863.864-.863h3.456c.478 0 .864.386.864.864v4.279a.864.864 0 0 1-.864.864z"/>
        <path fill="#F7E89A" d="M25.077 17.856L23.04 15.82l4.443-4.443 2.037 2.036z"/>
        <path fill="#8D451F" d="M24.262 15.82l.815.814 3.22-3.221-.814-.815-3.221 3.221zm.815 2.9a.86.86 0 0 1-.611-.253l-2.037-2.037a.863.863 0 0 1 0-1.222l4.443-4.442a.864.864 0 0 1 1.222 0l2.037 2.036a.863.863 0 0 1 0 1.222l-4.443 4.443a.861.861 0 0 1-.611.253z"/>
        <path fill="#F7E89A" d="M27.609 22.32c0 6.283-5.093 11.376-11.376 11.376-6.283 0-11.376-5.093-11.376-11.376 0-6.283 5.093-11.376 11.376-11.376 6.283 0 11.376 5.093 11.376 11.376"/>
        <path fill="#8D451F" d="M16.233 11.808c-5.796 0-10.512 4.716-10.512 10.512s4.716 10.512 10.512 10.512 10.512-4.716 10.512-10.512-4.716-10.512-10.512-10.512m0 22.752c-6.75 0-12.24-5.49-12.24-12.24s5.49-12.24 12.24-12.24 12.24 5.49 12.24 12.24-5.49 12.24-12.24 12.24"/>
        <path fill="#F7E89A" d="M26.41 12.265l-.926-.926 2.036-2.036 4.073 4.073-2.036 2.036-1.131-1.13"/>
        <path fill="#8D451F" d="M16.233 33.12c-6.7 0-12.15-5.49-12.15-12.24a.864.864 0 0 1 1.728 0c0 5.796 4.675 10.512 10.422 10.512 5.746 0 10.422-4.716 10.422-10.512a.864.864 0 1 1 1.728 0c0 6.75-5.45 12.24-12.15 12.24" opacity=".1"/>
        <path fill="#8D451F" d="M29.557 16.276a.864.864 0 0 1-.611-.253l-1.131-1.13 1.222-1.223.52.52.815-.814-2.852-2.851-.814.814.314.315-1.222 1.222-.925-.926a.864.864 0 0 1 0-1.222l2.037-2.036a.864.864 0 0 1 1.222 0l4.072 4.073a.865.865 0 0 1 0 1.222l-2.036 2.036a.864.864 0 0 1-.611.253"/>
        <path fill="#FFF" d="M14.313 8.352h-1.728v-2.88h6.912v2.88H17.77"/>
        <path fill="#8D451F" d="M19.497 9.216H17.77V7.488h.864V6.336H13.45v1.152h.864v1.728h-1.728a.864.864 0 0 1-.864-.864v-2.88c0-.477.387-.864.864-.864h6.912c.478 0 .864.387.864.864v2.88a.864.864 0 0 1-.864.864"/>
        <path fill="#8D451F" d="M10.861 12.925a.862.862 0 0 1-.648-.292C8.884 11.13 8.265 9.586 8.265 7.776 8.265 3.488 11.754 0 16.041 0c4.288 0 7.776 3.488 7.776 7.776 0 1.663-.518 3.25-1.5 4.589a.865.865 0 0 1-1.393-1.021 6 6 0 0 0 1.165-3.568 6.055 6.055 0 0 0-6.048-6.048 6.055 6.055 0 0 0-6.048 6.048c0 1.382.468 2.527 1.515 3.713a.864.864 0 0 1-.647 1.436M14.313 14.4a.864.864 0 1 1-1.728 0 .864.864 0 0 1 1.728 0"/>
        <path fill="#8D451F" d="M14.313 14.4a.864.864 0 1 1-1.728 0 .864.864 0 0 1 1.728 0M9.58 17.52a.864.864 0 1 1-1.325 1.112.864.864 0 0 1 1.324-1.111M7.959 22.954a.864.864 0 1 1-.301 1.702.864.864 0 0 1 .3-1.702M10.21 28.159a.864.864 0 1 1 .864 1.496.864.864 0 0 1-.864-1.496M15.28 30.698a.864.864 0 1 1 1.624.592.864.864 0 0 1-1.625-.592M20.796 29.385a.864.864 0 1 1 1.624-.59.864.864 0 0 1-1.624.59M24.177 24.833a.864.864 0 1 1 .865-1.496.864.864 0 0 1-.865 1.496M23.841 19.173a.864.864 0 1 1-.3-1.702.864.864 0 0 1 .3 1.702M19.946 15.052a.864.864 0 1 1-1.324-1.11.864.864 0 0 1 1.324 1.11"/>
        <path fill="#FFF" d="M18.085 22.01c.758.922.704 1.472-.217 2.23-.922.758-1.472.704-2.23-.217-.758-.921-4.205-7.607-4.205-7.607s5.894 4.673 6.652 5.595"/>
        <path fill="#8D451F" d="M13.217 18.585c1.2 2.267 2.483 4.607 2.866 5.072.295.358.522.532.693.532.164 0 .408-.133.726-.394.336-.276.515-.5.531-.664.016-.164-.116-.418-.393-.754-.383-.466-2.43-2.177-4.423-3.792m3.56 6.756c-.71 0-1.22-.509-1.584-.952-.774-.942-3.916-7.02-4.272-7.71a.576.576 0 0 1 .87-.714c.608.482 5.965 4.738 6.74 5.68.334.407.71.957.649 1.598-.063.64-.539 1.107-.946 1.442-.552.454-1.002.656-1.458.656M28.697 14.717a.573.573 0 0 1-.407-.17l-2.101-2.1a.576.576 0 1 1 .814-.815l2.101 2.101a.576.576 0 0 1-.407.984M13.863 8.64h4.41V7.488h-4.41z"/>
    </g>
</svg>
