<svg xmlns="http://www.w3.org/2000/svg" xmlns:xlink="http://www.w3.org/1999/xlink" width="34" height="36" viewBox="0 0 34 36">
    <defs>
        <path id="a" d="M28.562 7.14H.198V.111h28.364z"/>
    </defs>
    <g fill="none" fill-rule="evenodd">
        <g transform="translate(.595 28.86)">
            <mask id="b" fill="#fff">
                <use xlink:href="#a"/>
            </mask>
            <path fill="#000" fill-opacity=".1" d="M28.562 3.626c0 1.94-6.35 3.515-14.182 3.515C6.547 7.14.198 5.567.198 3.626S6.548.11 14.38.11c7.832 0 14.182 1.574 14.182 3.515" mask="url(#b)"/>
        </g>
        <path fill="#F7E89A" d="M32.132 2.975l-1.104-1.603c-.184-.27-.603-.48-.93-.48h-15.91c-.328 0-.764.197-.968.452L11.9 2.981"/>
        <path fill="#8D451F" d="M32.133 3.868a.89.89 0 0 1-.737-.39l-1.104-1.602a.405.405 0 0 0-.204-.09h-15.9a.537.537 0 0 0-.275.12L12.597 3.54a.895.895 0 0 1-1.392-1.122L12.523.787C12.901.317 13.585 0 14.187 0h15.91c.619 0 1.32.359 1.668.868l1.104 1.61a.889.889 0 0 1-.736 1.39"/>
        <path fill="#F7E89A" d="M11.9 2.975v13.686h11.604l5.058 5.058v-5.058h3.57V2.975"/>
        <path fill="#8D451F" d="M28.562 22.612a.892.892 0 0 1-.63-.262l-4.797-4.796H11.9a.893.893 0 0 1-.893-.893V2.975a.893.893 0 1 1 1.786 0V15.77h10.71c.237 0 .464.094.631.261l3.535 3.534v-2.903c0-.493.4-.892.892-.892h2.678V2.975a.893.893 0 1 1 1.785 0v13.686c0 .493-.4.893-.893.893h-2.677v4.165a.892.892 0 0 1-.893.893"/>
        <path fill="#8D451F" d="M31.835 3.868H12.198a.595.595 0 0 1 0-1.19h19.637a.595.595 0 0 1 0 1.19"/>
        <path fill="#FFBAB0" d="M.893 14.876l1.103-1.603c.185-.27.604-.48.931-.48h15.91c.328 0 .764.197.968.452l1.32 1.637"/>
        <path fill="#783741" d="M.892 15.769a.892.892 0 0 1-.736-1.396l1.104-1.604c.348-.51 1.05-.868 1.667-.868h15.911c.602 0 1.286.316 1.663.786l1.32 1.636a.89.89 0 0 1-.138 1.252.893.893 0 0 1-1.255-.139l-1.319-1.631a.543.543 0 0 0-.275-.12H2.927a.397.397 0 0 0-.199.099L1.63 15.386a.886.886 0 0 1-.738.383"/>
        <path fill="#FFBAB0" d="M21.124 14.876v13.686H9.521L4.463 33.62v-5.058H.893V14.876"/>
        <path fill="#783741" d="M4.463 34.512a.891.891 0 0 1-.892-.893v-4.164H.892A.893.893 0 0 1 0 28.562V14.876a.893.893 0 1 1 1.785 0v12.793h2.678c.493 0 .892.4.892.893v2.903l3.535-3.534a.891.891 0 0 1 .63-.262h10.712V14.876a.893.893 0 1 1 1.785 0v13.686c0 .493-.4.893-.893.893H9.89L5.094 34.25a.892.892 0 0 1-.631.261"/>
        <path fill="#783741" d="M20.827 15.769H1.19a.595.595 0 0 1 0-1.19h19.637a.595.595 0 0 1 0 1.19"/>
    </g>
</svg>
