<?xml version="1.0" ?><svg id="Layer_1" style="enable-background:new 0 0 512 512;" version="1.1" viewBox="0 0 512 512" xml:space="preserve" xmlns="http://www.w3.org/2000/svg" xmlns:xlink="http://www.w3.org/1999/xlink"><style type="text/css">
	.st0{fill:#3B4049;}
	.st1{fill:#282627;}
	.st2{fill:#FFE356;}
</style><g id="XMLID_699_"><path class="st0" d="M500.1,181.9L260.5,77.5c-3.4-1.8-7.5-1.6-10.7,0.3L11.3,200.5c-7,4.2-7,14.3-0.1,18.6   l33.7,19.3L49.4,358l13.5-0.5l-4.3-111.2l201,114.8c3.9,2.4,8.8,2.2,12.4-0.6l229.6-160.3C508.1,195.4,507.2,185.6,500.1,181.9z" id="XMLID_713_"/><path class="st1" d="M405,218.7c0,0,0-0.1,0-0.1c-2.7-23.9-69.1-40.7-149.8-37.6c-80.7,3.1-145.6,24.9-146.4,49   c0,0,0,0.1,0,0.1l0,0l4.1,106.1l0.1,0c3.8,23.6,69.7,40.1,149.7,37c80-3.1,144.4-24.5,146.4-48.3l0.1,0L405,218.7L405,218.7z" id="XMLID_712_"/><ellipse class="st0" cx="260.9" cy="328.7" id="XMLID_708_" rx="44.4" ry="148.3" transform="matrix(-3.825666e-002 -0.9993 0.9993 -3.825666e-002 -57.6166 602.0231)"/><path class="st2" d="M81.8,433.4c2.3-8.5-4.5-16.5-7.3-24.9c-3.9-11.6-0.4-24.9-5.3-36.1l-24.9,2   c1.5,12.1-0.4,24.6-4.9,35.9c-1.4,3.6-3.1,7.2-3.7,11c-0.6,3.8,0.1,8.1,2.9,10.8c4.3,1.3,8.3-3.1,12.8-3.3   c4.9-0.3,8.8,4.4,13.6,4.7c3.7,0.3,7.7-1.9,10.9,0c1.5,0.9,3.1,2.7,4.7,1.9C81.2,435.2,81.6,434.3,81.8,433.4z" id="XMLID_814_"/><circle class="st1" cx="56.7" cy="370.9" id="XMLID_706_" r="16.9"/></g></svg>