<svg xmlns="http://www.w3.org/2000/svg" xmlns:xlink="http://www.w3.org/1999/xlink" width="34" height="36" viewBox="0 0 34 36">
    <defs>
        <path id="a" d="M28.663 7.2H.063V0h28.6v7.2z"/>
    </defs>
    <g fill="none" fill-rule="evenodd">
        <g transform="translate(1.8 28.71)">
            <mask id="b" fill="#fff">
                <use xlink:href="#a"/>
            </mask>
            <path fill="#000" fill-opacity=".1" d="M28.663 3.656c0 1.957-6.402 3.544-14.3 3.544-7.898 0-14.3-1.587-14.3-3.544S6.565 0 14.463 0c7.898 0 14.2 1.699 14.2 3.656" mask="url(#b)"/>
        </g>
        <path fill="#B9E3ED" d="M13.696 26.045l-6.738 7.01-4.747-1.497L.91 27.445l24.97-24.97 2.964 2.964 2.73 2.73-9.085 9.085"/>
        <path fill="#324654" d="M23.754 16.888a.9.9 0 0 1-.636-1.536l8.825-8.826A.9.9 0 1 1 33.216 7.8l-8.825 8.825a.896.896 0 0 1-.637.264M1.264 27.99a.9.9 0 0 1-.636-1.536L26.249.832a.9.9 0 1 1 1.273 1.273L1.901 27.726a.896.896 0 0 1-.637.264M6.958 33.684a.9.9 0 0 1-.636-1.536l8.255-8.256a.9.9 0 1 1 1.273 1.273L7.594 33.42a.896.896 0 0 1-.636.264"/>
        <path fill="#FFF" d="M23.754 15.988l6.548 6.547-6.263 2.278-2.278 6.263-6.547-6.548"/>
        <path fill="#324654" d="M21.761 31.976a.9.9 0 0 1-.636-.264l-6.548-6.547a.9.9 0 1 1 1.273-1.273l5.548 5.548 1.795-4.935a.9.9 0 0 1 .539-.538l4.935-1.795-5.55-5.548a.9.9 0 0 1 1.274-1.273l6.547 6.548a.9.9 0 0 1-.328 1.482l-5.869 2.134-2.134 5.869a.9.9 0 0 1-.846.592"/>
        <path fill="#FFF" d="M17.832 10.148l-8.54 8.535s.746 1.87 2.377 3.54c1.91 1.953 3.545 2.305 3.545 2.305l8.54-8.54s-2.064-.814-3.61-2.316c-1.558-1.514-2.312-3.524-2.312-3.524"/>
        <path fill="#324654" d="M10.01 18.814c.29.596.975 1.85 2.088 2.989 1.28 1.31 2.43 1.85 2.949 2.044l7.673-7.674c-.78-.392-1.984-1.089-2.994-2.07-1.012-.984-1.7-2.15-2.084-2.918l-7.632 7.629zm5.204 6.314a.603.603 0 0 1-.127-.013c-.073-.016-1.834-.414-3.847-2.473-1.695-1.735-2.473-3.656-2.505-3.737a.6.6 0 0 1 .133-.647l8.54-8.535a.601.601 0 0 1 .985.214c.007.018.731 1.908 2.17 3.305 1.442 1.402 3.391 2.18 3.411 2.188a.599.599 0 0 1 .205.982l-8.541 8.54a.6.6 0 0 1-.424.176z"/>
        <path fill="#B9E3ED" d="M14.69 15.56l1.564.53 1.324-.987-.02 1.652 1.348.954-1.578.49-.49 1.578-.954-1.35-1.652.022.988-1.324z"/>
        <path fill="#324654" d="M15.515 18.21c.195 0 .377.107.49.266l.252.363.13-.414a.6.6 0 0 1 .394-.393l.417-.13-.356-.25a.599.599 0 0 1-.254-.498l.006-.437-.35.262a.602.602 0 0 1-.551.087l-.414-.14.14.413a.601.601 0 0 1-.087.552l-.261.337.437-.018h.007zm.954 2.574a.6.6 0 0 1-.49-.253l-.772-1.092-1.337.017a.625.625 0 0 1-.542-.327.601.601 0 0 1 .054-.632l.8-1.071-.43-1.266a.599.599 0 0 1 .761-.761l1.266.43 1.072-.8a.6.6 0 0 1 .958.488l-.017 1.337 1.092.772a.6.6 0 0 1-.169 1.063l-1.276.396-.397 1.277a.6.6 0 0 1-.573.422z"/>
        <path fill="#FFF" d="M26.923 1.36c.528-.527 2.238.329 3.82 1.91 1.581 1.582 2.436 3.292 1.909 3.82"/>
        <path fill="#324654" d="M32.652 7.99a.9.9 0 0 1-.746-1.404c-.04-.37-.572-1.451-1.8-2.68-1.228-1.227-2.31-1.76-2.68-1.799a.9.9 0 0 1-1.14-1.383c1.175-1.174 3.477.295 5.093 1.91 1.615 1.615 3.083 3.917 1.91 5.092a.897.897 0 0 1-.637.263"/>
        <path fill="#324654" d="M32.207 7.845c-.341 0-.779-.103-1.338-.382-.777-.39-1.651-1.05-2.46-1.859-.81-.809-1.47-1.683-1.859-2.46-.622-1.245-.371-1.888-.051-2.207a.6.6 0 0 1 .87.825c-.064.277.372 1.478 1.888 2.994 1.515 1.515 2.717 1.948 2.994 1.887a.6.6 0 0 1 .825.87c-.176.177-.45.332-.869.332M6.08 33.96c-1.285 0-2.94-.751-4.254-2.064-2.078-2.078-2.241-4.4-1.198-5.442A.9.9 0 0 1 1.9 27.727c-.161.182-.275 1.423 1.198 2.896 1.446 1.446 2.937 1.633 3.249 1.5a.9.9 0 0 1 1.246 1.297c-.366.367-.897.54-1.513.54"/>
    </g>
</svg>
