<svg xmlns="http://www.w3.org/2000/svg" width="33" height="36" viewBox="0 0 33 36">
    <g fill="none" fill-rule="evenodd">
        <path fill="#000" fill-opacity=".1" d="M30.695 32.107c0 2.024-6.52 3.893-14.69 3.893S1.108 34.131 1.108 32.107c0-2.025 6.727-3.866 14.897-3.866s14.69 1.841 14.69 3.866"/>
        <path fill="#FFBAB0" d="M2.288 23.155s-2.089-6.674 1.128-9.35c.56-.22.631 1.948.631 1.948s3.099-7.279 4.17-7.18c.536.049.34 2.192.34 2.192s3.267-6.183 5.41-5.986c.268.024.145 1.363.145 1.363S17.307.763 19.182.935c1.875.172.383 7.598-2.541 10.031 1.754-1.46 3.709-2.63 3.709-2.63s-1.106 6.65-6.22 6.451c2.946.27 3.463.048 3.463.048s-1.858 3.07-6.68 2.628c.973 1.17 2.605 1.05 2.605 1.05s-2.462 3.285-7.016 2.867c.365.439.462.853 2.337 1.025 1.875.172-3.118 1.605-6.064 1.335l-.487-.585"/>
        <path fill="#783741" d="M3.234 22.836c.109.004.222.007.338.007.902 0 1.884-.12 2.745-.277a3.052 3.052 0 0 1-.437-.472c-.03-.039-.06-.078-.093-.118a.931.931 0 0 1 .8-1.524c.237.021.476.03.708.03 1.912 0 3.351-.73 4.274-1.406a3.655 3.655 0 0 1-1.372-1.018.93.93 0 0 1-.108-1.028c.175-.334.534-.594.91-.558.286.027.57-.024.846-.024 1.424 0 2.5-.288 3.277-.712-.334-.022-.694-.019-1.077-.054a.916.916 0 0 1-.845-.971c.033-.504.466-.872.966-.862 2.371.087 3.725-1.666 4.47-3.254-.454.33-.935.698-1.4 1.085a.931.931 0 1 1-1.19-1.43l.002-.002c2.367-1.972 3.396-7.304 2.932-8.37-.795.212-2.663 2.376-4.067 4.74a.932.932 0 0 1-1.725-.595c-1.087.82-2.706 3.094-3.809 5.177a.931.931 0 0 1-1.75-.52l.01-.12c-.792 1.322-1.883 3.556-2.735 5.558a.932.932 0 0 1-1.787-.334l-.003-.074c-1.015 2.147-.426 5.495.01 6.995l.11.131zm.338 1.869a9.58 9.58 0 0 1-.883-.038.93.93 0 0 1-.63-.332l-.487-.585a.933.933 0 0 1-.173-.317c-.092-.297-2.233-7.304 1.421-10.344a.921.921 0 0 1 .257-.151c.135-.053.275-.08.416-.08.276 0 .513.082.711.246 2.54-5.464 3.537-5.463 3.991-5.463.029 0 .079.002.107.005.35.032.598.186.774.398 1.261-1.939 3.096-4.201 4.79-4.201.063 0 .125.003.186.008.141.013.263.047.37.097C15.641 2.2 17.495 0 19.091 0c.059 0 .117.002.175.008.332.03 1.142.224 1.497 1.365.43 1.386.058 3.861-.824 6.126a.93.93 0 0 1 1.328.989c-.263 1.583-1.152 4.058-2.914 5.663.278.306.253.806.035 1.166-.061.101-1.249 2.007-4.037 2.79a.93.93 0 0 1-.09.964c-.077.104-1.547 2.023-4.289 2.875.198.252.212.533.206.66-.034.754-.701 1.16-2.643 1.609-1.348.31-2.793.49-3.964.49z"/>
        <path fill="#773640" d="M2.761 24.021a.62.62 0 0 1-.527-.948c.311-.5 7.68-12.312 13.448-15.545a.621.621 0 0 1 .606 1.084C10.797 11.689 3.364 23.608 3.29 23.728a.621.621 0 0 1-.528.293"/>
        <path fill="#773640" d="M.932 29.566a.93.93 0 0 1-.928-1.016c.165-1.806 1.764-4.897 1.946-5.243a.93.93 0 1 1 1.649.865c-.446.851-1.629 3.328-1.74 4.548a.931.931 0 0 1-.927.846"/>
        <path fill="#B9E3ED" d="M16.936 26.873c0-1.83 3.196-3.314 7.138-3.314 3.942 0 7.138 1.484 7.138 3.314v3.724c0 1.83-3.196 3.314-7.138 3.314-3.942 0-7.138-1.484-7.138-3.314v-3.724z"/>
        <path fill="#324654" d="M24.074 24.49c-3.789 0-6.207 1.411-6.207 2.383v3.724c0 .972 2.418 2.383 6.207 2.383 3.789 0 6.207-1.411 6.207-2.383v-3.724c0-.972-2.418-2.383-6.207-2.383m0 10.352c-4.6 0-8.069-1.825-8.069-4.245v-3.724c0-2.42 3.47-4.245 8.069-4.245 4.6 0 8.069 1.825 8.069 4.245v3.724c0 2.42-3.47 4.245-8.069 4.245"/>
        <path fill="#324654" d="M24.074 33.29c-4.6 0-8.069-1.825-8.069-4.245a.931.931 0 1 1 1.862 0c0 .972 2.418 2.383 6.207 2.383 3.789 0 6.207-1.411 6.207-2.383a.931.931 0 1 1 1.862 0c0 2.42-3.47 4.245-8.069 4.245" opacity=".2"/>
        <path fill="#324654" d="M24.074 28.945c-1.95 0-3.805-.35-5.222-.988a.62.62 0 1 1 .51-1.132c1.26.567 2.933.879 4.712.879 1.778 0 3.451-.312 4.711-.879a.621.621 0 0 1 .51 1.132c-1.417.637-3.271.988-5.221.988"/>
        <path fill="#B9E3ED" d="M28.419 18.62v7.449h-8.69v-7.448"/>
        <path fill="#324654" d="M19.73 25.24c-.515 0-.932-.377-.932-.891v-4.714c0-1.77.417-.931.931-.931s.931.417.931.931v4.714c0 .514-.28.542-.93.892M28.419 25.24c-.64-.325-.931-.377-.931-.891v-5.645c0-.514.417-.931.93-.931.515 0 .932.862.932 1.376v5.2c0 .514-.417.892-.931.892"/>
        <path fill="#FFF" d="M28.419 19.17c0 1.114-1.945 2.017-4.345 2.017-2.4 0-4.345-.903-4.345-2.017 0-1.115 1.945-2.018 4.345-2.018 2.4 0 4.345.903 4.345 2.018"/>
        <path fill="#FFF" d="M19.73 19.17c0-1.115 1.944-2.018 4.344-2.018 2.4 0 4.345.903 4.345 2.018"/>
        <path fill="#324654" d="M28.419 20.1c-.514 0-.859.795-.859-.93 0-.27-1.283-1.087-3.486-1.087-2.203 0-3.414.816-3.414 1.087a.931.931 0 1 1-1.862 0c0-1.709 2.219-2.949 5.276-2.949s5.276 1.24 5.276 2.949a.931.931 0 0 1-.931.93"/>
        <path fill="#FFF" d="M28.186 19.635c0 1.114-1.712 2.017-4.112 2.017-2.4 0-4.034-.903-4.034-2.017"/>
        <path fill="#324654" d="M24.074 22.273c-2.741 0-4.655-1.085-4.655-2.638a.62.62 0 0 1 .62-.62c.343 0 .621-1.132.621.62 0 .586 1.187 1.397 3.414 1.397 2.248 0 3.491-.826 3.491-1.397a.62.62 0 1 1 1.242 0c0 1.529-1.99 2.638-4.733 2.638"/>
    </g>
</svg>
