<?xml version="1.0" encoding="UTF-8" standalone="no"?>
<svg
   id="Layer_1"
   data-name="Layer 1"
   viewBox="0 0 24 24"
   version="1.1"
   sodipodi:docname="remove.svg"
   inkscape:version="1.1 (c68e22c387, 2021-05-23)"
   xmlns:inkscape="http://www.inkscape.org/namespaces/inkscape"
   xmlns:sodipodi="http://sodipodi.sourceforge.net/DTD/sodipodi-0.dtd"
   xmlns="http://www.w3.org/2000/svg"
   xmlns:svg="http://www.w3.org/2000/svg">
  <defs
     id="defs7" />
  <sodipodi:namedview
     id="namedview5"
     pagecolor="#505050"
     bordercolor="#ffffff"
     borderopacity="1"
     inkscape:pageshadow="0"
     inkscape:pageopacity="0"
     inkscape:pagecheckerboard="1"
     showgrid="false"
     inkscape:zoom="33.666667"
     inkscape:cx="12"
     inkscape:cy="14.376238"
     inkscape:window-width="1920"
     inkscape:window-height="986"
     inkscape:window-x="-11"
     inkscape:window-y="-11"
     inkscape:window-maximized="1"
     inkscape:current-layer="Layer_1" />
  <path
     d="M 20.698376,3.7333048 A 12,12 45 1 0 20.266695,20.698376 12.013,12.013 0 0 0 20.698376,3.7333048 Z M 4.751353,18.888913 a 10,10 0 1 1 14.13756,0.359734 10.011,10.011 0 0 1 -14.13756,-0.359734 z m 10.693103,-3.26459 A 1,1 0 0 1 14.0307,15.58835 L 11.964027,13.413756 9.7894325,15.48043 A 1,1 0 0 1 8.41165,14.0307 L 10.586244,11.964027 8.5195703,9.7894325 A 1,1 0 0 1 9.9692996,8.41165 l 2.0666734,2.174594 2.174595,-2.0666737 a 1,1 0 0 1 1.377782,1.4497293 l -2.174594,2.0666734 2.066674,2.174595 a 1,1 0 0 1 -0.03597,1.413755 z"
     id="path2"
     style="fill:#d40000" />
</svg>
