<svg xmlns="http://www.w3.org/2000/svg" xmlns:xlink="http://www.w3.org/1999/xlink" width="31" height="36" viewBox="0 0 31 36">
    <defs>
        <path id="a" d="M19.28 12.376V.112H.267v12.264H19.28z"/>
        <path id="c" d="M19.923.112H.26v20.774h19.663V.112z"/>
    </defs>
    <g fill="none" fill-rule="evenodd">
        <g transform="translate(11.493 4.973)">
            <mask id="b" fill="#fff">
                <use xlink:href="#a"/>
            </mask>
            <path fill="#702C17" d="M2.09 10.011c.157.13.927.57 4.051.57 7.905 0 11.324-4.72 11.324-7.127 0-1.027-.53-1.548-1.574-1.548-6.852 0-7.343 3.337-7.346 3.37a.898.898 0 0 1-.517.733c-2.962 1.38-5.733 3.253-5.939 4.002m4.052 2.365c-3.782 0-5.527-.585-5.837-1.956-.475-2.103 3.722-4.494 6.55-5.846C7.241 3.273 8.907.112 15.89.112c2.058 0 3.389 1.312 3.389 3.342 0 3.74-4.566 8.922-13.139 8.922" mask="url(#b)"/>
        </g>
        <path fill="#702C17" d="M3.39 6.88c-1.045 0-1.575.52-1.575 1.547 0 2.408 3.42 7.127 11.323 7.127 3.124 0 3.895-.44 4.053-.57-.206-.749-2.977-2.623-5.939-4.002a.898.898 0 0 1-.517-.733c-.016-.123-.5-3.37-7.346-3.37m9.75 10.47C4.565 17.349 0 12.168 0 8.427c0-2.03 1.33-3.342 3.39-3.342 6.982 0 8.647 3.16 9.037 4.463 2.827 1.351 7.024 3.743 6.549 5.846-.31 1.37-2.056 1.955-5.838 1.955"/>
        <path fill="#333" d="M15.286 35.782C7.323 35.782.869 34.2.869 32.25c0-1.951 6.454-3.534 14.417-3.534 7.961 0 14.416 1.583 14.416 3.534 0 1.951-6.455 3.533-14.416 3.533z" opacity=".1"/>
        <path fill="#FFE888" d="M21.133 30.061c0 1.24-2.573 2.244-5.747 2.244-3.173 0-5.746-1.004-5.746-2.244 0-1.239 2.573-2.243 5.746-2.243 3.174 0 5.747 1.004 5.747 2.243"/>
        <path fill="#702C17" d="M15.386 28.715c-3.175 0-4.839 1-4.839 1.346 0 .346 1.664 1.346 4.84 1.346 3.175 0 4.838-1 4.838-1.346 0-.345-1.663-1.346-4.839-1.346m0 4.487c-3.306 0-6.653-1.079-6.653-3.14 0-2.063 3.347-3.141 6.653-3.141 3.307 0 6.654 1.078 6.654 3.14 0 2.062-3.347 3.141-6.654 3.141"/>
        <path fill="#FFE888" d="M15.386 30.21c-3.173 0-5.746-1.003-5.746-2.242 0-1.24 2.573-2.244 5.746-2.244 3.174 0 5.747 1.004 5.747 2.244 0 .645-.698 1.227-1.815 1.636"/>
        <path fill="#702C17" d="M15.386 30.81c-3.156 0-6.351-.977-6.351-2.842 0-1.866 3.195-2.842 6.351-2.842s6.352.976 6.352 2.842c0 .894-.785 1.675-2.21 2.197a.607.607 0 0 1-.777-.354.596.596 0 0 1 .357-.768c.981-.36 1.42-.8 1.42-1.075 0-.655-2.05-1.646-5.142-1.646-3.09 0-5.141.99-5.141 1.646 0 .654 2.05 1.645 5.141 1.645.334 0 .605.268.605.598 0 .33-.27.598-.605.598"/>
        <path fill="#702C17" d="M15.386 28.715a.902.902 0 0 1-.907-.897v-10.34c0-.497.406-.898.907-.898s.908.401.908.897v10.341a.902.902 0 0 1-.908.897"/>
        <path fill="#FFE888" d="M6.428 2.782v8.626c0 4.842 3.969 8.767 8.865 8.767 4.895 0 8.864-3.925 8.864-8.767V2.782H6.427z"/>
        <path fill="#FFF" d="M24.46 4.209c0-.82-3.972-1.496-8.908-1.496s-8.937.665-8.937 1.485c0 .82 4.001 1.485 8.937 1.485 4.936 0 8.908-.654 8.908-1.474"/>
        <path fill="#FFF" d="M9.407 11.223V2.607H6.194v8.626c0 4.717 3.767 8.561 8.486 8.758-3.14-1.69-5.273-4.983-5.273-8.768"/>
        <path fill="#FFE888" d="M24.46 2.692c0-.82-3.972-1.496-8.908-1.496s-8.937.665-8.937 1.486c0 .82 4.001 1.485 8.937 1.485 4.936 0 8.908-.655 8.908-1.475"/>
        <path fill="#702C17" d="M7.475 2.682c.916.373 3.665.886 8.077.886 4.466 0 7.16-.502 8.057-.876-.904-.377-3.647-.897-8.057-.897-4.412 0-7.162.513-8.077.887m8.077 2.083c-2.42 0-4.7-.157-6.42-.444-2.188-.363-3.122-.854-3.122-1.64 0-.786.934-1.276 3.123-1.64 1.72-.285 4-.443 6.42-.443 2.414 0 4.689.16 6.405.449 2.178.367 3.107.859 3.107 1.645 0 1.871-6.653 2.073-9.513 2.073"/>
        <g transform="translate(5.444 .187)">
            <mask id="d" fill="#fff">
                <use xlink:href="#c"/>
            </mask>
            <path fill="#702C17" d="M2.079 2.817v8.404c0 4.34 3.57 7.87 7.957 7.87 4.451 0 8.072-3.55 8.072-7.912V2.8c-.718-.352-3.412-.892-7.856-.892-4.545 0-7.41.557-8.173.91m7.957 18.069c-5.388 0-9.772-4.336-9.772-9.665V2.587a.928.928 0 0 1 .015-.272C.445 1.25 2.019.842 3.712.565c1.777-.293 4.1-.453 6.54-.453 2.424 0 4.692.16 6.389.454 1.623.28 3.282.729 3.282 1.939v8.674c0 5.353-4.435 9.707-9.887 9.707" mask="url(#d)"/>
        </g>
        <path fill="#702C17" d="M10.547 30.026a.524.524 0 0 1 .007.037c.068.402 1.794 1.344 4.832 1.344s4.764-.942 4.832-1.344a.502.502 0 0 1 .007-.037v-2.023a.524.524 0 0 1-.007-.037c-.068-.402-1.794-1.345-4.832-1.345s-4.764.943-4.832 1.345a.502.502 0 0 1-.007.037v2.023zm4.84 3.176c-2.845 0-6.037-.823-6.572-2.623a.863.863 0 0 1-.082-.368v-2.393c0-.14.031-.27.089-.389.552-1.786 3.731-2.602 6.564-2.602 2.844 0 6.037.822 6.571 2.623a.863.863 0 0 1 .083.368v2.393c0 .139-.032.27-.09.388-.551 1.787-3.73 2.603-6.564 2.603z"/>
    </g>
</svg>
